<svg width="23" height="24" viewBox="0 0 23 24" fill="none" xmlns="http://www.w3.org/2000/svg">
<path d="M8.65398 4.79928C9.31591 2.86207 11.9924 2.8034 12.7772 4.62327L12.8437 4.80039L13.7369 7.41286C13.9417 8.01199 14.2725 8.56025 14.7071 9.02066C15.1417 9.48106 15.67 9.84291 16.2563 10.0818L16.4965 10.1714L19.1088 11.0637C21.0459 11.7256 21.1046 14.4023 19.2859 15.1872L19.1088 15.2536L16.4965 16.1469C15.8972 16.3515 15.3487 16.6823 14.8882 17.1169C14.4276 17.5515 14.0656 18.0799 13.8266 18.6664L13.7369 18.9055L12.8448 21.5191C12.1828 23.4563 9.5063 23.515 8.7226 21.6962L8.65398 21.5191L7.7618 18.9066C7.55722 18.3073 7.22646 17.7588 6.79185 17.2982C6.35724 16.8376 5.82889 16.4756 5.24245 16.2366L5.00336 16.1469L2.39103 15.2547C0.452817 14.5927 0.394151 11.916 2.21392 11.1323L2.39103 11.0637L5.00336 10.1714C5.60246 9.96672 6.15069 9.63588 6.61107 9.20126C7.07146 8.76663 7.43328 8.23832 7.67214 7.65196L7.7618 7.41286L8.65398 4.79928ZM19.6047 0.982422C19.8118 0.982422 20.0147 1.04051 20.1904 1.1501C20.3662 1.25968 20.5076 1.41636 20.5987 1.60233L20.6519 1.73185L21.0393 2.86761L22.1761 3.25505C22.3836 3.32556 22.5655 3.45609 22.6988 3.63011C22.8321 3.80413 22.9107 4.01379 22.9247 4.23253C22.9387 4.45127 22.8874 4.66925 22.7774 4.85882C22.6674 5.0484 22.5036 5.20105 22.3067 5.29742L22.1761 5.35056L21.0404 5.738L20.653 6.87486C20.5823 7.08234 20.4517 7.26419 20.2776 7.39735C20.1036 7.53051 19.8939 7.609 19.6752 7.62287C19.4564 7.63674 19.2385 7.58537 19.049 7.47527C18.8595 7.36516 18.707 7.20128 18.6107 7.00438L18.5576 6.87486L18.1702 5.7391L17.0333 5.35166C16.8258 5.28115 16.6439 5.15062 16.5106 4.9766C16.3774 4.80259 16.2988 4.59292 16.2848 4.37418C16.2708 4.15544 16.322 3.93746 16.4321 3.74789C16.5421 3.55831 16.7059 3.40566 16.9027 3.30929L17.0333 3.25615L18.169 2.86871L18.5565 1.73185C18.6311 1.51314 18.7723 1.32327 18.9603 1.18887C19.1483 1.05447 19.3736 0.982283 19.6047 0.982422Z" fill="white"/>
</svg>
