<svg width="13" height="14" viewBox="0 0 13 14" fill="none" xmlns="http://www.w3.org/2000/svg">
<g opacity="0.8">
<path d="M2.75255 9.33477C1.86176 9.85688 -0.47381 10.923 0.948715 12.2571C1.6436 12.9087 2.41753 13.3748 3.39055 13.3748H8.94278C9.91582 13.3748 10.6897 12.9087 11.3846 12.2571C12.8072 10.923 10.4716 9.85688 9.58078 9.33477C7.4919 8.11041 4.84142 8.11041 2.75255 9.33477Z" stroke="white" stroke-linecap="round" stroke-linejoin="round"/>
<path d="M9.00017 3.45834C9.00017 5.02315 7.73162 6.29168 6.16683 6.29168C4.60202 6.29168 3.3335 5.02315 3.3335 3.45834C3.3335 1.89353 4.60202 0.625 6.16683 0.625C7.73162 0.625 9.00017 1.89353 9.00017 3.45834Z" stroke="white"/>
</g>
</svg>
