<svg width="12" height="14" viewBox="0 0 12 14" fill="none" xmlns="http://www.w3.org/2000/svg">
<g opacity="0.8">
<path d="M1.16481 11.2121C1.30319 12.24 2.15454 13.0452 3.19056 13.0928C4.06232 13.1329 4.94788 13.1538 5.92308 13.1538C6.89828 13.1538 7.78382 13.1329 8.65557 13.0928C9.69163 13.0452 10.543 12.24 10.6814 11.2121C10.7717 10.5413 10.8462 9.85387 10.8462 9.15381C10.8462 8.45375 10.7717 7.7663 10.6814 7.09553C10.543 6.06765 9.69163 5.26242 8.65557 5.21479C7.78382 5.17471 6.89828 5.15381 5.92308 5.15381C4.94788 5.15381 4.06232 5.17471 3.19056 5.21479C2.15454 5.26242 1.30319 6.06765 1.16481 7.09553C1.07449 7.7663 1 8.45375 1 9.15381C1 9.85387 1.07449 10.5413 1.16481 11.2121Z" stroke="white"/>
<path d="M3.15381 5.15388V3.61542C3.15381 2.08602 4.39364 0.846191 5.92304 0.846191C7.45245 0.846191 8.69227 2.08602 8.69227 3.61542V5.15388" stroke="white" stroke-linecap="round" stroke-linejoin="round"/>
<path d="M8.38464 9.14771V9.15424" stroke="white" stroke-linecap="round" stroke-linejoin="round"/>
<path d="M5.9231 9.14771V9.15424" stroke="white" stroke-linecap="round" stroke-linejoin="round"/>
<path d="M3.46155 9.14771V9.15424" stroke="white" stroke-linecap="round" stroke-linejoin="round"/>
</g>
</svg>
