<svg width="13" height="12" viewBox="0 0 13 12" fill="none" xmlns="http://www.w3.org/2000/svg">
<g opacity="0.8">
<path d="M8.01712 7.77614L8.30042 7.49471C8.69181 7.1058 9.30126 7.02566 9.80199 7.29777L10.9886 7.94326C11.7509 8.35764 11.9192 9.37339 11.3235 9.96545L10.4413 10.8427C10.2164 11.0663 9.93805 11.2291 9.61748 11.2589M0.501774 3.04589C0.48003 2.66071 0.660195 2.31405 0.92982 2.04566L1.90519 1.0765C2.44817 0.536009 3.36391 0.619879 3.83793 1.25294L4.62133 2.29914C5.00465 2.81105 4.96302 3.51183 4.52379 3.94795L4.34611 4.12563" stroke="white"/>
<path d="M9.61742 11.259C8.60477 11.3535 6.12968 11.2491 3.49182 8.62614C1.00368 6.1523 0.557622 4.03194 0.501709 3.04663" stroke="white"/>
<path d="M8.01721 7.77613C8.01721 7.77613 7.34501 8.4446 5.50919 6.61935C3.67338 4.79409 4.3462 4.125 4.3462 4.125" stroke="white" stroke-linecap="round"/>
</g>
</svg>
