<svg width="62" height="59" viewBox="0 0 62 59" fill="none" xmlns="http://www.w3.org/2000/svg">
<g filter="url(#filter0_f_232_2716)">
<path d="M30.8919 35.4759L37.0245 42.4483C39.2965 45.0314 40.4326 46.323 41.6217 46.0086C42.8108 45.6942 43.2187 43.9944 44.0342 40.5946L48.558 21.7358C49.8141 16.4997 50.442 13.8816 49.0459 12.5903C47.6501 11.299 45.2303 12.2597 40.3908 14.1811L17.9384 23.0953C14.0678 24.6321 12.1325 25.4005 12.0096 26.7209C11.997 26.856 11.9968 26.992 12.009 27.1271C12.1278 28.4481 14.0607 29.223 17.9266 30.7725C19.6783 31.4746 20.5541 31.8258 21.182 32.4982C21.2526 32.5737 21.3205 32.652 21.3856 32.7328C21.9641 33.4517 22.211 34.3952 22.7048 36.2821L23.6289 39.8136C24.1094 41.6497 24.3497 42.5679 24.9789 42.6931C25.6082 42.8182 26.1561 42.0569 27.2518 40.5342L30.8919 35.4759ZM30.8919 35.4759L30.2906 34.8493C29.6063 34.136 29.2643 33.7796 29.2643 33.3365C29.2643 32.8934 29.6063 32.5368 30.2906 31.8235L37.0506 24.7784" stroke="#34ACE1" stroke-width="1.67166" stroke-linecap="round" stroke-linejoin="round"/>
</g>
<path d="M30.8919 35.4759L37.0245 42.4483C39.2965 45.0314 40.4326 46.323 41.6217 46.0086C42.8108 45.6942 43.2187 43.9944 44.0342 40.5946L48.558 21.7358C49.8141 16.4997 50.442 13.8816 49.0459 12.5903C47.6501 11.299 45.2303 12.2597 40.3908 14.1811L17.9384 23.0953C14.0678 24.6321 12.1325 25.4005 12.0096 26.7209C11.997 26.856 11.9968 26.992 12.009 27.1271C12.1278 28.4481 14.0607 29.223 17.9266 30.7725C19.6783 31.4746 20.5541 31.8258 21.182 32.4982C21.2526 32.5737 21.3205 32.652 21.3856 32.7328C21.9641 33.4517 22.211 34.3952 22.7048 36.2821L23.6289 39.8136C24.1094 41.6497 24.3497 42.5679 24.9789 42.6931C25.6082 42.8182 26.1561 42.0569 27.2518 40.5342L30.8919 35.4759ZM30.8919 35.4759L30.2906 34.8493C29.6063 34.136 29.2643 33.7796 29.2643 33.3365C29.2643 32.8934 29.6063 32.5368 30.2906 31.8235L37.0506 24.7784" stroke="#34ACE1" stroke-width="1.67166" stroke-linecap="round" stroke-linejoin="round"/>
<defs>
<filter id="filter0_f_232_2716" x="0.0198059" y="0.0202637" width="61.7994" height="58.0159" filterUnits="userSpaceOnUse" color-interpolation-filters="sRGB">
<feFlood flood-opacity="0" result="BackgroundImageFix"/>
<feBlend mode="normal" in="SourceGraphic" in2="BackgroundImageFix" result="shape"/>
<feGaussianBlur stdDeviation="5.57219" result="effect1_foregroundBlur_232_2716"/>
</filter>
</defs>
</svg>
