<svg width="62" height="62" viewBox="0 0 62 62" fill="none" xmlns="http://www.w3.org/2000/svg">
<g filter="url(#filter0_f_232_2706)">
<path d="M30.9195 49.8391C41.3684 49.8391 49.8391 41.3684 49.8391 30.9195C49.8391 20.4706 41.3684 12 30.9195 12C20.4706 12 12 20.4706 12 30.9195C12 33.5283 12.528 36.0138 13.483 38.2749C14.0107 39.5243 14.2746 40.1492 14.3073 40.6215C14.34 41.0937 14.201 41.613 13.923 42.6519L12 49.8391L19.1871 47.9161C20.226 47.6381 20.7454 47.4991 21.2176 47.5318C21.6898 47.5644 22.3146 47.8283 23.5643 48.3561C25.8253 49.311 28.3107 49.8391 30.9195 49.8391Z" stroke="#4DCB5B" stroke-width="1.67166" stroke-linejoin="round"/>
<path d="M24.4643 31.6333L26.1121 29.5868C26.8066 28.7243 27.665 27.9213 27.7324 26.7728C27.7492 26.4827 27.5452 25.1804 27.137 22.5757C26.9765 21.5521 26.0208 21.4597 25.193 21.4597C24.1143 21.4597 23.5749 21.4597 23.0393 21.7044C22.3623 22.0136 21.6673 22.8831 21.5148 23.6115C21.3941 24.1878 21.4838 24.585 21.6632 25.3793C22.4249 28.7528 24.212 32.0846 26.9831 34.8557C29.7543 37.6268 33.086 39.414 36.4596 40.1757C37.2538 40.355 37.6509 40.4447 38.2274 40.324C38.9558 40.1715 39.8252 39.4766 40.1345 38.7995C40.3791 38.2639 40.3791 37.7247 40.3791 36.6459C40.3791 35.8179 40.2868 34.8623 39.2631 34.7019C36.6584 34.2936 35.3562 34.0896 35.0659 34.1065C33.9175 34.1738 33.1146 35.0322 32.252 35.7267L30.2055 37.3745" stroke="#4DCB5B" stroke-width="1.67166"/>
</g>
<path d="M30.9195 49.8391C41.3684 49.8391 49.8391 41.3684 49.8391 30.9195C49.8391 20.4706 41.3684 12 30.9195 12C20.4706 12 12 20.4706 12 30.9195C12 33.5283 12.528 36.0138 13.483 38.2749C14.0107 39.5243 14.2746 40.1492 14.3073 40.6215C14.34 41.0937 14.201 41.613 13.923 42.6519L12 49.8391L19.1871 47.9161C20.226 47.6381 20.7454 47.4991 21.2176 47.5318C21.6898 47.5644 22.3146 47.8283 23.5643 48.3561C25.8253 49.311 28.3107 49.8391 30.9195 49.8391Z" stroke="#4DCB5B" stroke-width="1.67166" stroke-linejoin="round"/>
<path d="M24.4643 31.6333L26.1121 29.5868C26.8066 28.7243 27.665 27.9213 27.7324 26.7728C27.7492 26.4827 27.5452 25.1804 27.137 22.5757C26.9765 21.5521 26.0208 21.4597 25.193 21.4597C24.1143 21.4597 23.5749 21.4597 23.0393 21.7044C22.3623 22.0136 21.6673 22.8831 21.5148 23.6115C21.3941 24.1878 21.4838 24.585 21.6632 25.3793C22.4249 28.7528 24.212 32.0846 26.9831 34.8557C29.7543 37.6268 33.086 39.414 36.4596 40.1757C37.2538 40.355 37.6509 40.4447 38.2274 40.324C38.9558 40.1715 39.8252 39.4766 40.1345 38.7995C40.3791 38.2639 40.3791 37.7247 40.3791 36.6459C40.3791 35.8179 40.2868 34.8623 39.2631 34.7019C36.6584 34.2936 35.3562 34.0896 35.0659 34.1065C33.9175 34.1738 33.1146 35.0322 32.252 35.7267L30.2055 37.3745" stroke="#4DCB5B" stroke-width="1.67166"/>
<defs>
<filter id="filter0_f_232_2706" x="0.0197754" y="0.0197906" width="61.7995" height="61.7995" filterUnits="userSpaceOnUse" color-interpolation-filters="sRGB">
<feFlood flood-opacity="0" result="BackgroundImageFix"/>
<feBlend mode="normal" in="SourceGraphic" in2="BackgroundImageFix" result="shape"/>
<feGaussianBlur stdDeviation="5.57219" result="effect1_foregroundBlur_232_2706"/>
</filter>
</defs>
</svg>
